<?xml version="1.0" encoding="utf-8"?>
<!-- Generator: Adobe Illustrator 25.2.0, SVG Export Plug-In . SVG Version: 6.00 Build 0)  -->
<svg version="1.1" id="Layer_1" xmlns="http://www.w3.org/2000/svg" xmlns:xlink="http://www.w3.org/1999/xlink" x="0px" y="0px"
	 viewBox="0 0 149.2 172.2" style="enable-background:new 0 0 149.2 172.2;" xml:space="preserve">
<style type="text/css">
	.st0{fill:#585858;}
	.st1{fill:#FFFFFF;}
</style>
<polygon class="st0" points="149.2,129.2 74.6,172.2 0,129.2 0,43.1 74.6,0 149.2,43.1 "/>
<path class="st1" d="M-107.1-2.7L-82,24.1L-94.1-2.7H-107.1z M-74.4,28.4l14.1-31.1h-28.1L-74.4,28.4z M-94-7.9l8.2-15.5h-10.6
	l-11.6,15.5C-107.9-7.9-94-7.9-94-7.9z M-66.8,24.1l25.1-26.8h-13L-66.8,24.1z M-88.1-7.9h27.5l-8.2-15.5h-11L-88.1-7.9z M-54.8-7.9
	h13.9l-11.6-15.5H-63L-54.8-7.9z M-49.1-27.5l15.5,20.6c0.4,0.5,0.6,1,0.5,1.7c0,0.6-0.3,1.2-0.7,1.6l-38.7,41.2
	c-0.5,0.5-1.1,0.8-1.9,0.8c-0.8,0-1.4-0.3-1.9-0.8l-38.7-41.2c-0.4-0.5-0.7-1-0.7-1.6c0-0.6,0.1-1.2,0.5-1.7l15.5-20.6
	c0.5-0.7,1.2-1,2.1-1h46.4C-50.3-28.5-49.6-28.2-49.1-27.5z"/>
<rect x="166.3" style="fill:none;" width="124.2" height="39.3"/>
<rect x="158.1" y="94.9" style="fill:none;" width="75.5" height="7.4"/>
<path class="st1" d="M36.8,57.5c-0.4,0.2,0,55,0,55h7.9V66.2L61.4,85v-8.3L45.1,57.5"/>
<path class="st1" d="M77.6,57.5L61.4,76.7V85L78,66.2v46.3H86c0,0,0.4-54.8,0-55"/>
<polyline class="st1" points="114.8,88.8 114.8,81.2 82.4,81.2 82.4,88.8 "/>
<polyline class="st1" points="114.8,66.2 114.8,57.5 82.4,57.5 82.4,66.2 "/>
</svg>
